<?xml version="1.0" encoding="iso-8859-1"?>
<!-- Generator: Adobe Illustrator 19.0.0, SVG Export Plug-In . SVG Version: 6.00 Build 0)  -->
<svg version="1.1" id="Layer_1" xmlns="http://www.w3.org/2000/svg" xmlns:xlink="http://www.w3.org/1999/xlink" x="0px" y="0px"
	 viewBox="0 0 500 500" style="enable-background:new 0 0 500 500;" xml:space="preserve">
<g>
	<g>
		<path d="M367.214,144.256H136.686c-2.208,0-4,1.792-4,4s1.792,4,4,4h230.532c2.208,0,3.996-1.792,3.996-4
			C371.214,146.048,369.422,144.256,367.214,144.256z"/>
	</g>
</g>
<g>
	<g>
		<path d="M167.946,183.328H136.69c-2.208,0-4,1.792-4,4s1.792,4,4,4h31.256c2.208,0,4-1.792,4-4S170.154,183.328,167.946,183.328z"
			/>
	</g>
</g>
<g>
	<g>
		<path d="M367.214,183.328H203.11c-2.208,0-4,1.792-4,4s1.792,4,4,4h164.108c2.208,0,3.996-1.792,3.996-4
			C371.214,185.12,369.422,183.328,367.214,183.328z"/>
	</g>
</g>
<g>
	<g>
		<path d="M367.214,222.4h-31.256c-2.208,0-4,1.792-4,4c0,2.208,1.792,4,4,4h31.26c2.208,0,3.996-1.792,3.996-4
			C371.214,224.192,369.422,222.4,367.214,222.4z"/>
	</g>
</g>
<g>
	<g>
		<path d="M300.79,222.4H136.686c-2.208,0-4,1.792-4,4c0,2.208,1.792,4,4,4H300.79c2.208,0,4-1.792,4-4
			C304.79,224.192,302.998,222.4,300.79,222.4z"/>
	</g>
</g>
<g>
	<g>
		<path d="M367.214,261.472H136.686c-2.208,0-4,1.792-4,4s1.792,4,4,4h230.532c2.208,0,3.996-1.792,3.996-4
			S369.422,261.472,367.214,261.472z"/>
	</g>
</g>
<g>
	<g>
		<path d="M367.214,378.688H136.686c-2.208,0-4,1.792-4,4s1.792,4,4,4h230.532c2.208,0,3.996-1.792,3.996-4
			S369.422,378.688,367.214,378.688z"/>
	</g>
</g>
<g>
	<g>
		<path d="M167.946,300.544H136.69c-2.208,0-4,1.792-4,4s1.792,4,4,4h31.256c2.208,0,4-1.792,4-4S170.154,300.544,167.946,300.544z"
			/>
	</g>
</g>
<g>
	<g>
		<path d="M367.214,300.544H203.11c-2.208,0-4,1.792-4,4s1.792,4,4,4h164.108c2.208,0,3.996-1.792,3.996-4
			S369.422,300.544,367.214,300.544z"/>
	</g>
</g>
<g>
	<g>
		<path d="M367.214,339.616h-31.256c-2.208,0-4,1.792-4,4s1.792,4,4,4h31.26c2.208,0,3.996-1.792,3.996-4
			S369.422,339.616,367.214,339.616z"/>
	</g>
</g>
<g>
	<g>
		<path d="M300.79,339.616H136.686c-2.208,0-4,1.792-4,4s1.792,4,4,4H300.79c2.208,0,4-1.792,4-4S302.998,339.616,300.79,339.616z"
			/>
	</g>
</g>
<g>
	<g>
		<path d="M167.946,417.76H136.69c-2.208,0-4,1.792-4,4s1.792,4,4,4h31.256c2.208,0,4-1.792,4-4S170.154,417.76,167.946,417.76z"/>
	</g>
</g>
<g>
	<g>
		<path d="M367.214,417.76H203.11c-2.208,0-4,1.792-4,4s1.792,4,4,4h164.108c2.208,0,3.996-1.792,3.996-4
			S369.422,417.76,367.214,417.76z"/>
	</g>
</g>
<g>
	<g>
		<path d="M421.918,66.108h-74.24c-2.208,0-4,1.792-4,4c0,2.208,1.792,4,4,4h70.236v390.54H85.986V74.108h66.332
			c2.208,0,4-1.792,4-4c0-2.208-1.792-4-4-4H81.986c-2.208,0-4,1.792-4,4v398.54c0,2.208,1.792,4,4,4h339.928
			c2.212,0,4-1.792,4.004-4V70.108C425.918,67.9,424.126,66.108,421.918,66.108z"/>
	</g>
</g>
<g>
	<g>
		<path d="M427.73,46.576h-80.052c-2.208,0-4,1.792-4,4s1.792,4,4,4h80.052c14.456,0,25.356,11.548,25.356,26.864V463.7
			c0,15.872-11.136,28.3-25.356,28.3H76.078c-15.264,0-29.164-13.488-29.164-28.3V81.44c0-14.308,13.628-26.864,29.164-26.864h76.24
			c2.208,0,4-1.792,4-4s-1.792-4-4-4h-76.24c-20.148,0-37.164,15.964-37.164,34.864V463.7c0,19.336,17.368,36.3,37.164,36.3H427.73
			c18.7,0,33.352-15.944,33.356-36.3V81.44C461.086,61.564,446.746,46.576,427.73,46.576z"/>
	</g>
</g>
<g>
	<g>
		<path d="M251.902,14.752c-8.672,0-15.724,7.052-15.724,15.72c0,8.672,7.056,15.724,15.724,15.724
			c8.668,0,15.72-7.052,15.72-15.724C267.622,21.804,260.57,14.752,251.902,14.752z M251.902,38.196
			c-4.26,0-7.724-3.468-7.724-7.724c0-4.256,3.468-7.72,7.724-7.72c4.26,0,7.72,3.46,7.72,7.72S256.162,38.196,251.902,38.196z"/>
	</g>
</g>
<g>
	<g>
		<path d="M318.01,19.224h-37.256C276.102,7.448,265.078,0,251.902,0c-13.18,0-24.2,7.452-28.856,19.224h-37.728
			c-20.056,0-37,15.816-37,34.54V85.74c0,2.208,1.792,4,4,4h195.36c2.208,0,4-1.792,3.996-4V53.764
			C351.674,34.072,337.202,19.224,318.01,19.224z M156.318,81.74V53.764c0-14.384,13.28-26.54,29-26.54h40.584
			c1.776,0,3.34-1.176,3.84-2.884C232.63,14.416,241.326,8,251.902,8c10.576,0,19.272,6.416,22.16,16.34
			c0.496,1.708,2.06,2.884,3.84,2.884h40.112c14.632,0,25.664,11.408,25.664,26.54V81.74H156.318z"/>
	</g>
</g>
<g>
</g>
<g>
</g>
<g>
</g>
<g>
</g>
<g>
</g>
<g>
</g>
<g>
</g>
<g>
</g>
<g>
</g>
<g>
</g>
<g>
</g>
<g>
</g>
<g>
</g>
<g>
</g>
<g>
</g>
</svg>
